<mxfile host="app.diagrams.net" modified="2023-04-10T07:30:38.456Z" agent="Mozilla/5.0 (Windows NT 10.0; Win64; x64) AppleWebKit/537.36 (KHTML, like Gecko) Chrome/111.0.0.0 Safari/537.36" etag="6_7dPzC6I6u1YUVjbEzE" version="21.1.5" type="github">
  <diagram name="Page-1" id="929967ad-93f9-6ef4-fab6-5d389245f69c">
    <mxGraphModel dx="2011" dy="1164" grid="1" gridSize="10" guides="1" tooltips="1" connect="1" arrows="1" fold="1" page="1" pageScale="1.5" pageWidth="1169" pageHeight="826" background="none" math="0" shadow="0">
      <root>
        <mxCell id="0" style=";html=1;" />
        <mxCell id="1" style=";html=1;" parent="0" />
        <mxCell id="1672d66443f91eb5-2" value="TOP画面&lt;br&gt;&lt;br&gt;ふろゆきを彷彿とさせる&lt;br&gt;画像&lt;br&gt;&lt;br&gt;「開始」ボタン&lt;br&gt;&lt;br&gt;各種SNSのリンクアイコン" style="shape=folder;tabWidth=63;tabHeight=20;tabPosition=left;strokeWidth=1;html=1;whiteSpace=wrap;align=center;fontSize=12;fontStyle=1" parent="1" vertex="1">
          <mxGeometry x="529" y="160" width="180" height="180" as="geometry" />
        </mxCell>
        <mxCell id="1672d66443f91eb5-4" value="&lt;p&gt;結果画面&lt;/p&gt;&lt;p&gt;&lt;br&gt;&lt;/p&gt;&lt;p&gt;診断結果の文章&lt;/p&gt;&lt;p&gt;結果に応じた画像&lt;/p&gt;「&lt;span style=&quot;background-color: initial;&quot;&gt;もう一度やる」ボタン&lt;/span&gt;&lt;br&gt;&lt;p&gt;各種SNSのリンクアイコン&lt;/p&gt;" style="shape=rect;html=1;overflow=fill;whiteSpace=wrap;align=center;fontStyle=1" parent="1" vertex="1">
          <mxGeometry x="538.5" y="720" width="160" height="180" as="geometry" />
        </mxCell>
        <mxCell id="1672d66443f91eb5-5" value="&lt;p&gt;設問ページ１&lt;/p&gt;&lt;p&gt;5問&lt;/p&gt;" style="shape=rect;html=1;overflow=fill;whiteSpace=wrap;align=center;fontStyle=1" parent="1" vertex="1">
          <mxGeometry x="870" y="220" width="150" height="80" as="geometry" />
        </mxCell>
        <mxCell id="1672d66443f91eb5-19" style="rounded=0;html=1;endArrow=none;endFill=0;jettySize=auto;orthogonalLoop=1;entryX=1;entryY=0.5;entryDx=0;entryDy=0;dashed=1;" parent="1" source="1672d66443f91eb5-11" target="n7Yj7QFjer0qp2Yuac8n-3" edge="1">
          <mxGeometry relative="1" as="geometry">
            <mxPoint x="1000.030303030303" y="725" as="targetPoint" />
          </mxGeometry>
        </mxCell>
        <mxCell id="1672d66443f91eb5-11" value="&lt;b&gt;未選択のラジオボタンがある状態で&lt;br&gt;「次へ」ボタン押下時に&lt;br&gt;エラーメッセージを表示&lt;br&gt;&lt;/b&gt;" style="shape=note;size=15;align=left;spacingLeft=10;html=1;whiteSpace=wrap;strokeWidth=1;fontSize=12;" parent="1" vertex="1">
          <mxGeometry x="1140" y="470" width="210" height="60" as="geometry" />
        </mxCell>
        <mxCell id="1672d66443f91eb5-23" value="無能チェッカー 画面遷移図" style="text;strokeColor=none;fillColor=none;html=1;fontSize=24;fontStyle=1;verticalAlign=middle;align=center;" parent="1" vertex="1">
          <mxGeometry x="120" y="40" width="1510" height="40" as="geometry" />
        </mxCell>
        <mxCell id="n7Yj7QFjer0qp2Yuac8n-1" value="&lt;p&gt;設問ページ2&lt;/p&gt;&lt;p&gt;5問&lt;/p&gt;" style="shape=rect;html=1;overflow=fill;whiteSpace=wrap;align=center;fontStyle=1" vertex="1" parent="1">
          <mxGeometry x="870" y="380" width="150" height="70" as="geometry" />
        </mxCell>
        <mxCell id="n7Yj7QFjer0qp2Yuac8n-2" value="&lt;p&gt;設問ページ3&lt;/p&gt;&lt;p&gt;5問&lt;/p&gt;" style="shape=rect;html=1;overflow=fill;whiteSpace=wrap;align=center;fontStyle=1" vertex="1" parent="1">
          <mxGeometry x="870" y="540" width="150" height="70" as="geometry" />
        </mxCell>
        <mxCell id="n7Yj7QFjer0qp2Yuac8n-3" value="&lt;p&gt;設問ページ4&lt;/p&gt;&lt;p&gt;5問&lt;/p&gt;" style="shape=rect;html=1;overflow=fill;whiteSpace=wrap;align=center;fontStyle=1" vertex="1" parent="1">
          <mxGeometry x="870" y="710" width="150" height="70" as="geometry" />
        </mxCell>
        <mxCell id="n7Yj7QFjer0qp2Yuac8n-4" value="" style="endArrow=classic;startArrow=classic;html=1;rounded=0;fontFamily=Helvetica;fontSize=12;fontColor=default;entryX=0;entryY=0.5;entryDx=0;entryDy=0;exitX=0;exitY=0;exitDx=180;exitDy=180;exitPerimeter=0;dashed=1;" edge="1" parent="1" source="1672d66443f91eb5-2" target="n7Yj7QFjer0qp2Yuac8n-2">
          <mxGeometry width="50" height="50" relative="1" as="geometry">
            <mxPoint x="660" y="360" as="sourcePoint" />
            <mxPoint x="900" y="530" as="targetPoint" />
            <Array as="points">
              <mxPoint x="800" y="575" />
            </Array>
          </mxGeometry>
        </mxCell>
        <mxCell id="n7Yj7QFjer0qp2Yuac8n-7" value="" style="endArrow=classic;startArrow=classic;html=1;rounded=0;fontFamily=Helvetica;fontSize=12;fontColor=default;entryX=0;entryY=0.5;entryDx=0;entryDy=0;exitX=0;exitY=0;exitDx=180;exitDy=180;exitPerimeter=0;dashed=1;" edge="1" parent="1" source="1672d66443f91eb5-2" target="n7Yj7QFjer0qp2Yuac8n-3">
          <mxGeometry width="50" height="50" relative="1" as="geometry">
            <mxPoint x="760" y="730" as="sourcePoint" />
            <mxPoint x="810" y="680" as="targetPoint" />
            <Array as="points">
              <mxPoint x="750" y="745" />
            </Array>
          </mxGeometry>
        </mxCell>
        <mxCell id="n7Yj7QFjer0qp2Yuac8n-8" value="" style="endArrow=classic;startArrow=classic;html=1;rounded=0;fontFamily=Helvetica;fontSize=12;fontColor=default;entryX=0;entryY=0.5;entryDx=0;entryDy=0;dashed=1;exitX=0;exitY=0;exitDx=180;exitDy=180;exitPerimeter=0;" edge="1" parent="1" source="1672d66443f91eb5-2">
          <mxGeometry width="50" height="50" relative="1" as="geometry">
            <mxPoint x="670" y="350" as="sourcePoint" />
            <mxPoint x="870" y="415" as="targetPoint" />
            <Array as="points">
              <mxPoint x="800" y="415" />
            </Array>
          </mxGeometry>
        </mxCell>
        <mxCell id="n7Yj7QFjer0qp2Yuac8n-9" value="" style="endArrow=classic;startArrow=classic;html=1;rounded=0;fontFamily=Helvetica;fontSize=12;fontColor=default;entryX=0;entryY=0.5;entryDx=0;entryDy=0;exitX=0;exitY=0;exitDx=180;exitDy=100;exitPerimeter=0;" edge="1" parent="1" source="1672d66443f91eb5-2" target="1672d66443f91eb5-5">
          <mxGeometry width="50" height="50" relative="1" as="geometry">
            <mxPoint x="780" y="230" as="sourcePoint" />
            <mxPoint x="1256" y="455" as="targetPoint" />
            <Array as="points" />
          </mxGeometry>
        </mxCell>
        <mxCell id="n7Yj7QFjer0qp2Yuac8n-17" value="" style="endArrow=classic;startArrow=classic;html=1;rounded=0;fontFamily=Helvetica;fontSize=12;fontColor=default;entryX=0.5;entryY=0;entryDx=0;entryDy=0;exitX=0.5;exitY=1;exitDx=0;exitDy=0;" edge="1" parent="1" source="1672d66443f91eb5-5" target="n7Yj7QFjer0qp2Yuac8n-1">
          <mxGeometry width="50" height="50" relative="1" as="geometry">
            <mxPoint x="970" y="350" as="sourcePoint" />
            <mxPoint x="1150" y="350" as="targetPoint" />
            <Array as="points" />
          </mxGeometry>
        </mxCell>
        <mxCell id="n7Yj7QFjer0qp2Yuac8n-18" value="" style="endArrow=classic;startArrow=classic;html=1;rounded=0;fontFamily=Helvetica;fontSize=12;fontColor=default;entryX=0.5;entryY=0;entryDx=0;entryDy=0;exitX=0.5;exitY=1;exitDx=0;exitDy=0;" edge="1" parent="1" source="n7Yj7QFjer0qp2Yuac8n-1" target="n7Yj7QFjer0qp2Yuac8n-2">
          <mxGeometry width="50" height="50" relative="1" as="geometry">
            <mxPoint x="960" y="450" as="sourcePoint" />
            <mxPoint x="960" y="530" as="targetPoint" />
            <Array as="points" />
          </mxGeometry>
        </mxCell>
        <mxCell id="n7Yj7QFjer0qp2Yuac8n-19" value="" style="endArrow=classic;startArrow=classic;html=1;rounded=0;fontFamily=Helvetica;fontSize=12;fontColor=default;entryX=0.5;entryY=0;entryDx=0;entryDy=0;exitX=0.5;exitY=1;exitDx=0;exitDy=0;" edge="1" parent="1" target="n7Yj7QFjer0qp2Yuac8n-3">
          <mxGeometry width="50" height="50" relative="1" as="geometry">
            <mxPoint x="944.5" y="610" as="sourcePoint" />
            <mxPoint x="944.5" y="690" as="targetPoint" />
            <Array as="points" />
          </mxGeometry>
        </mxCell>
        <mxCell id="n7Yj7QFjer0qp2Yuac8n-21" style="rounded=0;html=1;endArrow=none;endFill=0;jettySize=auto;orthogonalLoop=1;entryX=1;entryY=0.5;entryDx=0;entryDy=0;exitX=0;exitY=1;exitDx=0;exitDy=0;exitPerimeter=0;dashed=1;" edge="1" parent="1" source="1672d66443f91eb5-11" target="n7Yj7QFjer0qp2Yuac8n-2">
          <mxGeometry relative="1" as="geometry">
            <mxPoint x="1180" y="530" as="sourcePoint" />
            <mxPoint x="1030" y="755" as="targetPoint" />
          </mxGeometry>
        </mxCell>
        <mxCell id="n7Yj7QFjer0qp2Yuac8n-22" style="rounded=0;html=1;endArrow=none;endFill=0;jettySize=auto;orthogonalLoop=1;entryX=1;entryY=0.5;entryDx=0;entryDy=0;exitX=0;exitY=0;exitDx=0;exitDy=0;exitPerimeter=0;dashed=1;" edge="1" parent="1" source="1672d66443f91eb5-11" target="n7Yj7QFjer0qp2Yuac8n-1">
          <mxGeometry relative="1" as="geometry">
            <mxPoint x="1180" y="450" as="sourcePoint" />
            <mxPoint x="1010" y="495" as="targetPoint" />
          </mxGeometry>
        </mxCell>
        <mxCell id="n7Yj7QFjer0qp2Yuac8n-23" style="rounded=0;html=1;endArrow=none;endFill=0;jettySize=auto;orthogonalLoop=1;entryX=1;entryY=0.5;entryDx=0;entryDy=0;exitX=0.5;exitY=0;exitDx=0;exitDy=0;exitPerimeter=0;dashed=1;" edge="1" parent="1" source="1672d66443f91eb5-11" target="1672d66443f91eb5-5">
          <mxGeometry relative="1" as="geometry">
            <mxPoint x="1200" y="480" as="sourcePoint" />
            <mxPoint x="1030" y="425" as="targetPoint" />
          </mxGeometry>
        </mxCell>
        <mxCell id="n7Yj7QFjer0qp2Yuac8n-25" value="&lt;b&gt;&lt;font style=&quot;font-size: 14px;&quot;&gt;これ要る？&lt;/font&gt;&lt;/b&gt;" style="text;html=1;align=center;verticalAlign=middle;resizable=0;points=[];autosize=1;strokeColor=none;fillColor=none;fontSize=12;fontFamily=Helvetica;fontColor=default;" vertex="1" parent="1">
          <mxGeometry x="740" y="410" width="90" height="30" as="geometry" />
        </mxCell>
        <mxCell id="n7Yj7QFjer0qp2Yuac8n-26" value="開始" style="text;html=1;align=center;verticalAlign=middle;resizable=0;points=[];autosize=1;strokeColor=none;fillColor=none;fontSize=12;fontFamily=Helvetica;fontColor=default;fontStyle=1" vertex="1" parent="1">
          <mxGeometry x="770" y="230" width="50" height="30" as="geometry" />
        </mxCell>
        <mxCell id="n7Yj7QFjer0qp2Yuac8n-27" value="次へ" style="text;html=1;align=center;verticalAlign=middle;resizable=0;points=[];autosize=1;strokeColor=none;fillColor=none;fontSize=12;fontFamily=Helvetica;fontColor=default;fontStyle=1" vertex="1" parent="1">
          <mxGeometry x="890" y="325" width="50" height="30" as="geometry" />
        </mxCell>
        <mxCell id="n7Yj7QFjer0qp2Yuac8n-28" value="次へ" style="text;html=1;align=center;verticalAlign=middle;resizable=0;points=[];autosize=1;strokeColor=none;fillColor=none;fontSize=12;fontFamily=Helvetica;fontColor=default;fontStyle=1" vertex="1" parent="1">
          <mxGeometry x="890" y="485" width="50" height="30" as="geometry" />
        </mxCell>
        <mxCell id="n7Yj7QFjer0qp2Yuac8n-29" value="次へ" style="text;html=1;align=center;verticalAlign=middle;resizable=0;points=[];autosize=1;strokeColor=none;fillColor=none;fontSize=12;fontFamily=Helvetica;fontColor=default;fontStyle=1" vertex="1" parent="1">
          <mxGeometry x="890" y="650" width="50" height="30" as="geometry" />
        </mxCell>
        <mxCell id="n7Yj7QFjer0qp2Yuac8n-30" value="次へ" style="text;html=1;align=center;verticalAlign=middle;resizable=0;points=[];autosize=1;strokeColor=none;fillColor=none;fontSize=12;fontFamily=Helvetica;fontColor=default;fontStyle=1" vertex="1" parent="1">
          <mxGeometry x="810" y="820" width="50" height="30" as="geometry" />
        </mxCell>
        <mxCell id="n7Yj7QFjer0qp2Yuac8n-31" value="" style="endArrow=classic;html=1;rounded=0;fontFamily=Helvetica;fontSize=12;fontColor=default;exitX=0.5;exitY=1;exitDx=0;exitDy=0;entryX=1;entryY=0.5;entryDx=0;entryDy=0;" edge="1" parent="1" source="n7Yj7QFjer0qp2Yuac8n-3" target="1672d66443f91eb5-4">
          <mxGeometry width="50" height="50" relative="1" as="geometry">
            <mxPoint x="950" y="890" as="sourcePoint" />
            <mxPoint x="1000" y="840" as="targetPoint" />
            <Array as="points">
              <mxPoint x="945" y="810" />
            </Array>
          </mxGeometry>
        </mxCell>
        <mxCell id="n7Yj7QFjer0qp2Yuac8n-32" value="戻る" style="text;html=1;align=center;verticalAlign=middle;resizable=0;points=[];autosize=1;strokeColor=none;fillColor=none;fontSize=12;fontFamily=Helvetica;fontColor=default;fontStyle=1" vertex="1" parent="1">
          <mxGeometry x="950" y="650" width="50" height="30" as="geometry" />
        </mxCell>
        <mxCell id="n7Yj7QFjer0qp2Yuac8n-33" value="戻る" style="text;html=1;align=center;verticalAlign=middle;resizable=0;points=[];autosize=1;strokeColor=none;fillColor=none;fontSize=12;fontFamily=Helvetica;fontColor=default;fontStyle=1" vertex="1" parent="1">
          <mxGeometry x="960" y="485" width="50" height="30" as="geometry" />
        </mxCell>
        <mxCell id="n7Yj7QFjer0qp2Yuac8n-34" value="戻る" style="text;html=1;align=center;verticalAlign=middle;resizable=0;points=[];autosize=1;strokeColor=none;fillColor=none;fontSize=12;fontFamily=Helvetica;fontColor=default;fontStyle=1" vertex="1" parent="1">
          <mxGeometry x="960" y="325" width="50" height="30" as="geometry" />
        </mxCell>
        <mxCell id="n7Yj7QFjer0qp2Yuac8n-35" value="戻る" style="text;html=1;align=center;verticalAlign=middle;resizable=0;points=[];autosize=1;strokeColor=none;fillColor=none;fontSize=12;fontFamily=Helvetica;fontColor=default;fontStyle=1" vertex="1" parent="1">
          <mxGeometry x="770" y="265" width="50" height="30" as="geometry" />
        </mxCell>
        <mxCell id="n7Yj7QFjer0qp2Yuac8n-36" value="" style="endArrow=classic;html=1;rounded=0;fontFamily=Helvetica;fontSize=12;fontColor=default;entryX=0.5;entryY=1;entryDx=0;entryDy=0;entryPerimeter=0;" edge="1" parent="1" target="1672d66443f91eb5-2">
          <mxGeometry width="50" height="50" relative="1" as="geometry">
            <mxPoint x="619" y="730" as="sourcePoint" />
            <mxPoint x="630" y="515" as="targetPoint" />
          </mxGeometry>
        </mxCell>
        <mxCell id="n7Yj7QFjer0qp2Yuac8n-37" value="もう一度" style="text;html=1;align=center;verticalAlign=middle;resizable=0;points=[];autosize=1;strokeColor=none;fillColor=none;fontSize=12;fontFamily=Helvetica;fontColor=default;fontStyle=1" vertex="1" parent="1">
          <mxGeometry x="528.5" y="515" width="70" height="30" as="geometry" />
        </mxCell>
      </root>
    </mxGraphModel>
  </diagram>
</mxfile>
